<?xml version="1.0" encoding="utf-8"?>
<svg xmlns="http://www.w3.org/2000/svg" xmlns:xlink="http://www.w3.org/1999/xlink" width="150" height="100" viewBox="0 0 600 400">
<defs>
  <clipPath id="clip350">
    <rect x="0" y="0" width="600" height="400"/>
  </clipPath>
</defs>
<path clip-path="url(#clip350)" d="
M0 400 L600 400 L600 0 L0 0  Z
  " fill="#ffffff" fill-rule="evenodd" fill-opacity="1"/>
<defs>
  <clipPath id="clip351">
    <rect x="120" y="0" width="421" height="400"/>
  </clipPath>
</defs>
<path clip-path="url(#clip350)" d="
M21.748 380.252 L588.189 380.252 L588.189 11.811 L21.748 11.811  Z
  " fill="#ffffff" fill-rule="evenodd" fill-opacity="1"/>
<defs>
  <clipPath id="clip352">
    <rect x="21" y="11" width="567" height="369"/>
  </clipPath>
</defs>
<polyline clip-path="url(#clip352)" style="stroke:#000000; stroke-width:0.5; stroke-opacity:0.1; fill:none" points="
  37.7794,380.252 37.7794,11.811 
  "/>
<polyline clip-path="url(#clip352)" style="stroke:#000000; stroke-width:0.5; stroke-opacity:0.1; fill:none" points="
  171.374,380.252 171.374,11.811 
  "/>
<polyline clip-path="url(#clip352)" style="stroke:#000000; stroke-width:0.5; stroke-opacity:0.1; fill:none" points="
  304.969,380.252 304.969,11.811 
  "/>
<polyline clip-path="url(#clip352)" style="stroke:#000000; stroke-width:0.5; stroke-opacity:0.1; fill:none" points="
  438.563,380.252 438.563,11.811 
  "/>
<polyline clip-path="url(#clip352)" style="stroke:#000000; stroke-width:0.5; stroke-opacity:0.1; fill:none" points="
  572.158,380.252 572.158,11.811 
  "/>
<polyline clip-path="url(#clip350)" style="stroke:#000000; stroke-width:1; stroke-opacity:1; fill:none" points="
  21.748,380.252 588.189,380.252 
  "/>
<polyline clip-path="url(#clip350)" style="stroke:#000000; stroke-width:1; stroke-opacity:1; fill:none" points="
  37.7794,380.252 37.7794,375.831 
  "/>
<polyline clip-path="url(#clip350)" style="stroke:#000000; stroke-width:1; stroke-opacity:1; fill:none" points="
  171.374,380.252 171.374,375.831 
  "/>
<polyline clip-path="url(#clip350)" style="stroke:#000000; stroke-width:1; stroke-opacity:1; fill:none" points="
  304.969,380.252 304.969,375.831 
  "/>
<polyline clip-path="url(#clip350)" style="stroke:#000000; stroke-width:1; stroke-opacity:1; fill:none" points="
  438.563,380.252 438.563,375.831 
  "/>
<polyline clip-path="url(#clip350)" style="stroke:#000000; stroke-width:1; stroke-opacity:1; fill:none" points="
  572.158,380.252 572.158,375.831 
  "/>
<path clip-path="url(#clip350)" d="M 0 0 M30.8928 391.213 L38.3118 391.213 L38.3118 392.197 L30.8928 392.197 L30.8928 391.213 Z" fill="#000000" fill-rule="evenodd" fill-opacity="1" /><path clip-path="url(#clip350)" d="M 0 0 M40.5861 394.436 L44.6659 394.436 L44.6659 395.42 L39.1798 395.42 L39.1798 394.436 Q39.8453 393.748 40.9912 392.59 Q42.1428 391.427 42.4379 391.091 Q42.9993 390.461 43.2192 390.026 Q43.4449 389.587 43.4449 389.164 Q43.4449 388.476 42.9587 388.042 Q42.4784 387.608 41.703 387.608 Q41.1532 387.608 40.5398 387.798 Q39.9321 387.989 39.2377 388.377 L39.2377 387.197 Q39.9437 386.913 40.5571 386.768 Q41.1706 386.624 41.6798 386.624 Q43.0224 386.624 43.821 387.295 Q44.6196 387.966 44.6196 389.089 Q44.6196 389.621 44.4171 390.102 Q44.2203 390.576 43.6937 391.224 Q43.549 391.392 42.7736 392.197 Q41.9981 392.995 40.5861 394.436 Z" fill="#000000" fill-rule="evenodd" fill-opacity="1" /><path clip-path="url(#clip350)" d="M 0 0 M164.441 391.213 L171.86 391.213 L171.86 392.197 L164.441 392.197 L164.441 391.213 Z" fill="#000000" fill-rule="evenodd" fill-opacity="1" /><path clip-path="url(#clip350)" d="M 0 0 M173.33 394.436 L175.24 394.436 L175.24 387.845 L173.162 388.261 L173.162 387.197 L175.228 386.78 L176.397 386.78 L176.397 394.436 L178.307 394.436 L178.307 395.42 L173.33 395.42 L173.33 394.436 Z" fill="#000000" fill-rule="evenodd" fill-opacity="1" /><path clip-path="url(#clip350)" d="M 0 0 M304.969 387.55 Q304.066 387.55 303.609 388.441 Q303.157 389.326 303.157 391.109 Q303.157 392.885 303.609 393.776 Q304.066 394.662 304.969 394.662 Q305.877 394.662 306.328 393.776 Q306.786 392.885 306.786 391.109 Q306.786 389.326 306.328 388.441 Q305.877 387.55 304.969 387.55 M304.969 386.624 Q306.421 386.624 307.185 387.775 Q307.955 388.921 307.955 391.109 Q307.955 393.29 307.185 394.442 Q306.421 395.588 304.969 395.588 Q303.516 395.588 302.746 394.442 Q301.982 393.29 301.982 391.109 Q301.982 388.921 302.746 387.775 Q303.516 386.624 304.969 386.624 Z" fill="#000000" fill-rule="evenodd" fill-opacity="1" /><path clip-path="url(#clip350)" d="M 0 0 M436.159 394.436 L438.068 394.436 L438.068 387.845 L435.991 388.261 L435.991 387.197 L438.057 386.78 L439.226 386.78 L439.226 394.436 L441.135 394.436 L441.135 395.42 L436.159 395.42 L436.159 394.436 Z" fill="#000000" fill-rule="evenodd" fill-opacity="1" /><path clip-path="url(#clip350)" d="M 0 0 M570.821 394.436 L574.901 394.436 L574.901 395.42 L569.415 395.42 L569.415 394.436 Q570.08 393.748 571.226 392.59 Q572.378 391.427 572.673 391.091 Q573.234 390.461 573.454 390.026 Q573.68 389.587 573.68 389.164 Q573.68 388.476 573.194 388.042 Q572.713 387.608 571.938 387.608 Q571.388 387.608 570.775 387.798 Q570.167 387.989 569.472 388.377 L569.472 387.197 Q570.178 386.913 570.792 386.768 Q571.405 386.624 571.915 386.624 Q573.257 386.624 574.056 387.295 Q574.854 387.966 574.854 389.089 Q574.854 389.621 574.652 390.102 Q574.455 390.576 573.928 391.224 Q573.784 391.392 573.008 392.197 Q572.233 392.995 570.821 394.436 Z" fill="#000000" fill-rule="evenodd" fill-opacity="1" /><polyline clip-path="url(#clip352)" style="stroke:#000000; stroke-width:0.5; stroke-opacity:0.1; fill:none" points="
  21.748,307.791 588.189,307.791 
  "/>
<polyline clip-path="url(#clip352)" style="stroke:#000000; stroke-width:0.5; stroke-opacity:0.1; fill:none" points="
  21.748,222.123 588.189,222.123 
  "/>
<polyline clip-path="url(#clip352)" style="stroke:#000000; stroke-width:0.5; stroke-opacity:0.1; fill:none" points="
  21.748,136.455 588.189,136.455 
  "/>
<polyline clip-path="url(#clip352)" style="stroke:#000000; stroke-width:0.5; stroke-opacity:0.1; fill:none" points="
  21.748,50.7871 588.189,50.7871 
  "/>
<polyline clip-path="url(#clip350)" style="stroke:#000000; stroke-width:1; stroke-opacity:1; fill:none" points="
  21.748,380.252 21.748,11.811 
  "/>
<polyline clip-path="url(#clip350)" style="stroke:#000000; stroke-width:1; stroke-opacity:1; fill:none" points="
  21.748,307.791 28.5453,307.791 
  "/>
<polyline clip-path="url(#clip350)" style="stroke:#000000; stroke-width:1; stroke-opacity:1; fill:none" points="
  21.748,222.123 28.5453,222.123 
  "/>
<polyline clip-path="url(#clip350)" style="stroke:#000000; stroke-width:1; stroke-opacity:1; fill:none" points="
  21.748,136.455 28.5453,136.455 
  "/>
<polyline clip-path="url(#clip350)" style="stroke:#000000; stroke-width:1; stroke-opacity:1; fill:none" points="
  21.748,50.7871 28.5453,50.7871 
  "/>
<path clip-path="url(#clip350)" d="M 0 0 M0.520088 304.241 Q-0.382685 304.241 -0.839859 305.132 Q-1.29125 306.018 -1.29125 307.8 Q-1.29125 309.577 -0.839859 310.468 Q-0.382685 311.353 0.520088 311.353 Q1.42865 311.353 1.88003 310.468 Q2.33721 309.577 2.33721 307.8 Q2.33721 306.018 1.88003 305.132 Q1.42865 304.241 0.520088 304.241 M0.520088 303.315 Q1.97263 303.315 2.73651 304.467 Q3.50618 305.612 3.50618 307.8 Q3.50618 309.982 2.73651 311.133 Q1.97263 312.279 0.520088 312.279 Q-0.932451 312.279 -1.70212 311.133 Q-2.46601 309.982 -2.46601 307.8 Q-2.46601 305.612 -1.70212 304.467 Q-0.932451 303.315 0.520088 303.315 Z" fill="#000000" fill-rule="evenodd" fill-opacity="1" /><path clip-path="url(#clip350)" d="M 0 0 M4.77354 310.641 L5.9946 310.641 L5.9946 312.111 L4.77354 312.111 L4.77354 310.641 Z" fill="#000000" fill-rule="evenodd" fill-opacity="1" /><path clip-path="url(#clip350)" d="M 0 0 M9.76194 304.241 Q8.85916 304.241 8.40199 305.132 Q7.9506 306.018 7.9506 307.8 Q7.9506 309.577 8.40199 310.468 Q8.85916 311.353 9.76194 311.353 Q10.6705 311.353 11.1219 310.468 Q11.5791 309.577 11.5791 307.8 Q11.5791 306.018 11.1219 305.132 Q10.6705 304.241 9.76194 304.241 M9.76194 303.315 Q11.2145 303.315 11.9784 304.467 Q12.748 305.612 12.748 307.8 Q12.748 309.982 11.9784 311.133 Q11.2145 312.279 9.76194 312.279 Q8.3094 312.279 7.53973 311.133 Q6.77584 309.982 6.77584 307.8 Q6.77584 305.612 7.53973 304.467 Q8.3094 303.315 9.76194 303.315 Z" fill="#000000" fill-rule="evenodd" fill-opacity="1" /><path clip-path="url(#clip350)" d="M 0 0 M0.682124 218.573 Q-0.220649 218.573 -0.677822 219.464 Q-1.12921 220.349 -1.12921 222.132 Q-1.12921 223.908 -0.677822 224.8 Q-0.220649 225.685 0.682124 225.685 Q1.59068 225.685 2.04207 224.8 Q2.49924 223.908 2.49924 222.132 Q2.49924 220.349 2.04207 219.464 Q1.59068 218.573 0.682124 218.573 M0.682124 217.647 Q2.13466 217.647 2.89855 218.799 Q3.66822 219.944 3.66822 222.132 Q3.66822 224.314 2.89855 225.465 Q2.13466 226.611 0.682124 226.611 Q-0.770415 226.611 -1.54009 225.465 Q-2.30397 224.314 -2.30397 222.132 Q-2.30397 219.944 -1.54009 218.799 Q-0.770415 217.647 0.682124 217.647 Z" fill="#000000" fill-rule="evenodd" fill-opacity="1" /><path clip-path="url(#clip350)" d="M 0 0 M4.93557 224.973 L6.15663 224.973 L6.15663 226.443 L4.93557 226.443 L4.93557 224.973 Z" fill="#000000" fill-rule="evenodd" fill-opacity="1" /><path clip-path="url(#clip350)" d="M 0 0 M10.9656 221.785 Q11.8047 221.964 12.2735 222.531 Q12.748 223.098 12.748 223.932 Q12.748 225.211 11.8684 225.911 Q10.9888 226.611 9.36842 226.611 Q8.82444 226.611 8.24574 226.501 Q7.67283 226.397 7.0594 226.183 L7.0594 225.054 Q7.54551 225.338 8.12421 225.483 Q8.70291 225.627 9.3337 225.627 Q10.4332 225.627 11.0061 225.193 Q11.5848 224.759 11.5848 223.932 Q11.5848 223.168 11.0467 222.739 Q10.5142 222.305 9.55939 222.305 L8.55245 222.305 L8.55245 221.345 L9.60569 221.345 Q10.468 221.345 10.9251 221.003 Q11.3823 220.656 11.3823 220.008 Q11.3823 219.343 10.9078 218.99 Q10.439 218.631 9.55939 218.631 Q9.07907 218.631 8.5293 218.735 Q7.97954 218.839 7.31982 219.059 L7.31982 218.017 Q7.98533 217.832 8.56403 217.74 Q9.14851 217.647 9.66356 217.647 Q10.9946 217.647 11.77 218.255 Q12.5455 218.856 12.5455 219.886 Q12.5455 220.604 12.1346 221.102 Q11.7237 221.594 10.9656 221.785 Z" fill="#000000" fill-rule="evenodd" fill-opacity="1" /><path clip-path="url(#clip350)" d="M 0 0 M0.479579 132.905 Q-0.423194 132.905 -0.880368 133.796 Q-1.33175 134.681 -1.33175 136.464 Q-1.33175 138.24 -0.880368 139.132 Q-0.423194 140.017 0.479579 140.017 Q1.38814 140.017 1.83953 139.132 Q2.2967 138.24 2.2967 136.464 Q2.2967 134.681 1.83953 133.796 Q1.38814 132.905 0.479579 132.905 M0.479579 131.979 Q1.93212 131.979 2.696 133.13 Q3.46567 134.276 3.46567 136.464 Q3.46567 138.646 2.696 139.797 Q1.93212 140.943 0.479579 140.943 Q-0.97296 140.943 -1.74263 139.797 Q-2.50652 138.646 -2.50652 136.464 Q-2.50652 134.276 -1.74263 133.13 Q-0.97296 131.979 0.479579 131.979 Z" fill="#000000" fill-rule="evenodd" fill-opacity="1" /><path clip-path="url(#clip350)" d="M 0 0 M4.73303 139.305 L5.95409 139.305 L5.95409 140.775 L4.73303 140.775 L4.73303 139.305 Z" fill="#000000" fill-rule="evenodd" fill-opacity="1" /><path clip-path="url(#clip350)" d="M 0 0 M9.8661 135.989 Q9.07907 135.989 8.61611 136.527 Q8.15894 137.066 8.15894 138.003 Q8.15894 138.935 8.61611 139.479 Q9.07907 140.017 9.8661 140.017 Q10.6531 140.017 11.1103 139.479 Q11.5733 138.935 11.5733 138.003 Q11.5733 137.066 11.1103 136.527 Q10.6531 135.989 9.8661 135.989 M12.1867 132.326 L12.1867 133.391 Q11.7469 133.183 11.2955 133.073 Q10.8499 132.963 10.4101 132.963 Q9.25268 132.963 8.63926 133.744 Q8.03162 134.525 7.94482 136.105 Q8.28625 135.602 8.80129 135.335 Q9.31634 135.063 9.93555 135.063 Q11.2376 135.063 11.9899 135.856 Q12.748 136.643 12.748 138.003 Q12.748 139.334 11.961 140.139 Q11.174 140.943 9.8661 140.943 Q8.36727 140.943 7.57445 139.797 Q6.78163 138.646 6.78163 136.464 Q6.78163 134.415 7.75385 133.2 Q8.72606 131.979 10.3638 131.979 Q10.8036 131.979 11.2492 132.066 Q11.7006 132.152 12.1867 132.326 Z" fill="#000000" fill-rule="evenodd" fill-opacity="1" /><path clip-path="url(#clip350)" d="M 0 0 M0.566384 47.2367 Q-0.336389 47.2367 -0.793563 48.1279 Q-1.24495 49.0134 -1.24495 50.7957 Q-1.24495 52.5724 -0.793563 53.4636 Q-0.336389 54.349 0.566384 54.349 Q1.47494 54.349 1.92633 53.4636 Q2.3835 52.5724 2.3835 50.7957 Q2.3835 49.0134 1.92633 48.1279 Q1.47494 47.2367 0.566384 47.2367 M0.566384 46.3108 Q2.01892 46.3108 2.78281 47.4624 Q3.55248 48.6083 3.55248 50.7957 Q3.55248 52.9775 2.78281 54.1291 Q2.01892 55.2749 0.566384 55.2749 Q-0.886155 55.2749 -1.65583 54.1291 Q-2.41971 52.9775 -2.41971 50.7957 Q-2.41971 48.6083 -1.65583 47.4624 Q-0.886155 46.3108 0.566384 46.3108 Z" fill="#000000" fill-rule="evenodd" fill-opacity="1" /><path clip-path="url(#clip350)" d="M 0 0 M4.81983 53.6372 L6.04089 53.6372 L6.04089 55.1071 L4.81983 55.1071 L4.81983 53.6372 Z" fill="#000000" fill-rule="evenodd" fill-opacity="1" /><path clip-path="url(#clip350)" d="M 0 0 M7.34297 54.9277 L7.34297 53.8629 Q7.78278 54.0712 8.23417 54.1811 Q8.68555 54.2911 9.11958 54.2911 Q10.277 54.2911 10.8846 53.5156 Q11.498 52.7344 11.5848 51.1488 Q11.2492 51.6464 10.7342 51.9126 Q10.2191 52.1788 9.59411 52.1788 Q8.29782 52.1788 7.53973 51.3976 Q6.78742 50.6106 6.78742 49.2506 Q6.78742 47.9196 7.57445 47.1152 Q8.36148 46.3108 9.66934 46.3108 Q11.1682 46.3108 11.9552 47.4624 Q12.748 48.6083 12.748 50.7957 Q12.748 52.8386 11.7758 54.0596 Q10.8094 55.2749 9.17166 55.2749 Q8.73185 55.2749 8.28046 55.1881 Q7.82908 55.1013 7.34297 54.9277 M9.66934 51.2645 Q10.4564 51.2645 10.9136 50.7263 Q11.3765 50.1881 11.3765 49.2506 Q11.3765 48.3189 10.9136 47.7807 Q10.4564 47.2367 9.66934 47.2367 Q8.88231 47.2367 8.41935 47.7807 Q7.96218 48.3189 7.96218 49.2506 Q7.96218 50.1881 8.41935 50.7263 Q8.88231 51.2645 9.66934 51.2645 Z" fill="#000000" fill-rule="evenodd" fill-opacity="1" /><polyline clip-path="url(#clip352)" style="stroke:#009af9; stroke-width:1; stroke-opacity:1; fill:none" points="
  37.7794,307.791 38.8503,308.94 39.9212,310.098 40.9921,311.263 42.063,312.436 43.1339,313.615 44.2048,314.801 45.2757,315.992 46.3466,317.187 47.4175,318.386 
  48.4884,319.589 49.5593,320.794 50.6302,322.001 51.7011,323.209 52.772,324.418 53.8429,325.626 54.9138,326.833 55.9847,328.039 57.0555,329.242 58.1264,330.442 
  59.1973,331.638 60.2682,332.829 61.3391,334.015 62.41,335.194 63.4809,336.367 64.5518,337.531 65.6227,338.688 66.6936,339.834 67.7645,340.971 68.8354,342.097 
  69.9063,343.212 70.9772,344.314 72.0481,345.403 73.119,346.478 74.1899,347.538 75.2608,348.583 76.3317,349.612 77.4026,350.624 78.4735,351.618 79.5444,352.593 
  80.6153,353.549 81.6862,354.486 82.7571,355.401 83.828,356.296 84.8989,357.168 85.9698,358.017 87.0407,358.842 88.1116,359.643 89.1825,360.419 90.2534,361.169 
  91.3243,361.892 92.3952,362.589 93.4661,363.257 94.537,363.897 95.6079,364.508 96.6788,365.089 97.7497,365.639 98.8206,366.158 99.8915,366.646 100.962,367.101 
  102.033,367.523 103.104,367.911 104.175,368.265 105.246,368.585 106.317,368.869 107.388,369.117 108.459,369.329 109.53,369.504 110.6,369.641 111.671,369.741 
  112.742,369.802 113.813,369.824 114.884,369.807 115.955,369.751 117.026,369.654 118.097,369.516 119.168,369.338 120.239,369.118 121.309,368.857 122.38,368.554 
  123.451,368.208 124.522,367.819 125.593,367.388 126.664,366.914 127.735,366.396 128.806,365.834 129.877,365.228 130.948,364.579 132.018,363.885 133.089,363.146 
  134.16,362.363 135.231,361.536 136.302,360.663 137.373,359.746 138.444,358.784 139.515,357.776 140.586,356.724 141.657,355.626 142.727,354.484 143.798,353.297 
  144.869,352.064 145.94,350.787 147.011,349.465 148.082,348.098 149.153,346.687 150.224,345.232 151.295,343.732 152.365,342.188 153.436,340.601 154.507,338.97 
  155.578,337.295 156.649,335.578 157.72,333.818 158.791,332.015 159.862,330.171 160.933,328.284 162.004,326.357 163.074,324.388 164.145,322.379 165.216,320.329 
  166.287,318.24 167.358,316.112 168.429,313.945 169.5,311.74 170.571,309.498 171.642,307.218 172.713,304.901 173.783,302.549 174.854,300.161 175.925,297.739 
  176.996,295.282 178.067,292.792 179.138,290.269 180.209,287.714 181.28,285.128 182.351,282.511 183.422,279.864 184.492,277.188 185.563,274.483 186.634,271.751 
  187.705,268.992 188.776,266.207 189.847,263.396 190.918,260.562 191.989,257.704 193.06,254.823 194.131,251.92 195.201,248.997 196.272,246.053 197.343,243.091 
  198.414,240.111 199.485,237.113 200.556,234.099 201.627,231.07 202.698,228.027 203.769,224.97 204.84,221.901 205.91,218.821 206.981,215.73 208.052,212.63 
  209.123,209.522 210.194,206.407 211.265,203.285 212.336,200.159 213.407,197.028 214.478,193.894 215.548,190.759 216.619,187.622 217.69,184.485 218.761,181.35 
  219.832,178.217 220.903,175.088 221.974,171.963 223.045,168.844 224.116,165.731 225.187,162.626 226.257,159.529 227.328,156.443 228.399,153.368 229.47,150.305 
  230.541,147.254 231.612,144.219 232.683,141.198 233.754,138.194 234.825,135.207 235.896,132.239 236.966,129.29 238.037,126.362 239.108,123.456 240.179,120.573 
  241.25,117.713 242.321,114.878 243.392,112.069 244.463,109.287 245.534,106.533 246.605,103.808 247.675,101.112 248.746,98.4479 249.817,95.8152 250.888,93.2154 
  251.959,90.6493 253.03,88.118 254.101,85.6224 255.172,83.1633 256.243,80.7417 257.314,78.3585 258.384,76.0145 259.455,73.7107 260.526,71.4479 261.597,69.2269 
  262.668,67.0486 263.739,64.9137 264.81,62.8232 265.881,60.7776 266.952,58.7779 268.023,56.8248 269.093,54.9189 270.164,53.0611 271.235,51.252 272.306,49.4923 
  273.377,47.7826 274.448,46.1236 275.519,44.5159 276.59,42.9602 277.661,41.4569 278.731,40.0068 279.802,38.6102 280.873,37.2679 281.944,35.9801 283.015,34.7476 
  284.086,33.5706 285.157,32.4497 286.228,31.3853 287.299,30.3778 288.37,29.4275 289.44,28.5349 290.511,27.7002 291.582,26.9239 292.653,26.2061 293.724,25.5471 
  294.795,24.9473 295.866,24.4068 296.937,23.9258 298.008,23.5046 299.079,23.1432 300.149,22.8419 301.22,22.6007 302.291,22.4197 303.362,22.299 304.433,22.2386 
  305.504,22.2386 306.575,22.299 307.646,22.4197 308.717,22.6007 309.788,22.8419 310.858,23.1432 311.929,23.5046 313,23.9258 314.071,24.4068 315.142,24.9473 
  316.213,25.5471 317.284,26.2061 318.355,26.9239 319.426,27.7002 320.497,28.5349 321.567,29.4275 322.638,30.3778 323.709,31.3853 324.78,32.4497 325.851,33.5706 
  326.922,34.7476 327.993,35.9801 329.064,37.2679 330.135,38.6102 331.206,40.0068 332.276,41.4569 333.347,42.9602 334.418,44.5159 335.489,46.1236 336.56,47.7826 
  337.631,49.4923 338.702,51.252 339.773,53.0611 340.844,54.9189 341.914,56.8248 342.985,58.7779 344.056,60.7776 345.127,62.8232 346.198,64.9137 347.269,67.0486 
  348.34,69.2269 349.411,71.4479 350.482,73.7107 351.553,76.0145 352.623,78.3585 353.694,80.7417 354.765,83.1633 355.836,85.6224 356.907,88.118 357.978,90.6493 
  359.049,93.2154 360.12,95.8152 361.191,98.4479 362.262,101.112 363.332,103.808 364.403,106.533 365.474,109.287 366.545,112.069 367.616,114.878 368.687,117.713 
  369.758,120.573 370.829,123.456 371.9,126.362 372.971,129.29 374.041,132.239 375.112,135.207 376.183,138.194 377.254,141.198 378.325,144.219 379.396,147.254 
  380.467,150.305 381.538,153.368 382.609,156.443 383.68,159.529 384.75,162.626 385.821,165.731 386.892,168.844 387.963,171.963 389.034,175.088 390.105,178.217 
  391.176,181.35 392.247,184.485 393.318,187.622 394.389,190.759 395.459,193.894 396.53,197.028 397.601,200.159 398.672,203.285 399.743,206.407 400.814,209.522 
  401.885,212.63 402.956,215.73 404.027,218.821 405.097,221.901 406.168,224.97 407.239,228.027 408.31,231.07 409.381,234.099 410.452,237.113 411.523,240.111 
  412.594,243.091 413.665,246.053 414.736,248.997 415.806,251.92 416.877,254.823 417.948,257.704 419.019,260.562 420.09,263.396 421.161,266.207 422.232,268.992 
  423.303,271.751 424.374,274.483 425.445,277.188 426.515,279.864 427.586,282.511 428.657,285.128 429.728,287.714 430.799,290.269 431.87,292.792 432.941,295.282 
  434.012,297.739 435.083,300.161 436.154,302.549 437.224,304.901 438.295,307.218 439.366,309.498 440.437,311.74 441.508,313.945 442.579,316.112 443.65,318.24 
  444.721,320.329 445.792,322.379 446.863,324.388 447.933,326.357 449.004,328.284 450.075,330.171 451.146,332.015 452.217,333.818 453.288,335.578 454.359,337.295 
  455.43,338.97 456.501,340.601 457.572,342.188 458.642,343.732 459.713,345.232 460.784,346.687 461.855,348.098 462.926,349.465 463.997,350.787 465.068,352.064 
  466.139,353.297 467.21,354.484 468.28,355.626 469.351,356.724 470.422,357.776 471.493,358.784 472.564,359.746 473.635,360.663 474.706,361.536 475.777,362.363 
  476.848,363.146 477.919,363.885 478.989,364.579 480.06,365.228 481.131,365.834 482.202,366.396 483.273,366.914 484.344,367.388 485.415,367.819 486.486,368.208 
  487.557,368.554 488.628,368.857 489.698,369.118 490.769,369.338 491.84,369.516 492.911,369.654 493.982,369.751 495.053,369.807 496.124,369.824 497.195,369.802 
  498.266,369.741 499.337,369.641 500.407,369.504 501.478,369.329 502.549,369.117 503.62,368.869 504.691,368.585 505.762,368.265 506.833,367.911 507.904,367.523 
  508.975,367.101 510.046,366.646 511.116,366.158 512.187,365.639 513.258,365.089 514.329,364.508 515.4,363.897 516.471,363.257 517.542,362.589 518.613,361.892 
  519.684,361.169 520.755,360.419 521.825,359.643 522.896,358.842 523.967,358.017 525.038,357.168 526.109,356.296 527.18,355.401 528.251,354.486 529.322,353.549 
  530.393,352.593 531.463,351.618 532.534,350.624 533.605,349.612 534.676,348.583 535.747,347.538 536.818,346.478 537.889,345.403 538.96,344.314 540.031,343.212 
  541.102,342.097 542.172,340.971 543.243,339.834 544.314,338.688 545.385,337.531 546.456,336.367 547.527,335.194 548.598,334.015 549.669,332.829 550.74,331.638 
  551.811,330.442 552.881,329.242 553.952,328.039 555.023,326.833 556.094,325.626 557.165,324.418 558.236,323.209 559.307,322.001 560.378,320.794 561.449,319.589 
  562.52,318.386 563.59,317.187 564.661,315.992 565.732,314.801 566.803,313.615 567.874,312.436 568.945,311.263 570.016,310.098 571.087,308.94 572.158,307.791 
  
  "/>
<polyline clip-path="url(#clip352)" style="stroke:#e26f46; stroke-width:1; stroke-opacity:1; fill:none" points="
  37.7794,307.791 38.8503,308.94 39.9212,310.095 40.9921,311.253 42.063,312.413 43.1339,313.569 44.2048,314.721 45.2757,315.864 46.3466,316.997 47.4175,318.115 
  48.4884,319.217 49.5593,320.298 50.6302,321.357 51.7011,322.39 52.772,323.395 53.8429,324.369 54.9138,325.308 55.9847,326.212 57.0555,327.076 58.1264,327.898 
  59.1973,328.677 60.2682,329.409 61.3391,330.092 62.41,330.725 63.4809,331.304 64.5518,331.829 65.6227,332.298 66.6936,332.708 67.7645,333.059 68.8354,333.348 
  69.9063,333.575 70.9772,333.738 72.0481,333.837 73.119,333.87 74.1899,333.837 75.2608,333.737 76.3317,333.571 77.4026,333.337 78.4735,333.036 79.5444,332.667 
  80.6153,332.232 81.6862,331.73 82.7571,331.162 83.828,330.53 84.8989,329.833 85.9698,329.073 87.0407,328.252 88.1116,327.37 89.1825,326.429 90.2534,325.432 
  91.3243,324.38 92.3952,323.275 93.4661,322.119 94.537,320.915 95.6079,319.665 96.6788,318.372 97.7497,317.038 98.8206,315.668 99.8915,314.262 100.962,312.826 
  102.033,311.362 103.104,309.873 104.175,308.362 105.246,306.834 106.317,305.292 107.388,303.74 108.459,302.181 109.53,300.62 110.6,299.059 111.671,297.504 
  112.742,295.957 113.813,294.423 114.884,292.906 115.955,291.41 117.026,289.938 118.097,288.495 119.168,287.085 120.239,285.711 121.309,284.378 122.38,283.089 
  123.451,281.847 124.522,280.657 125.593,279.522 126.664,278.445 127.735,277.43 128.806,276.481 129.877,275.6 130.948,274.789 132.018,274.054 133.089,273.395 
  134.16,272.815 135.231,272.318 136.302,271.905 137.373,271.578 138.444,271.339 139.515,271.19 140.586,271.133 141.657,271.169 142.727,271.298 143.798,271.523 
  144.869,271.843 145.94,272.259 147.011,272.772 148.082,273.381 149.153,274.086 150.224,274.887 151.295,275.783 152.365,276.774 153.436,277.858 154.507,279.033 
  155.578,280.299 156.649,281.654 157.72,283.095 158.791,284.62 159.862,286.227 160.933,287.913 162.004,289.675 163.074,291.51 164.145,293.414 165.216,295.384 
  166.287,297.417 167.358,299.507 168.429,301.652 169.5,303.846 170.571,306.085 171.642,308.365 172.713,310.68 173.783,313.025 174.854,315.396 175.925,317.786 
  176.996,320.191 178.067,322.605 179.138,325.022 180.209,327.436 181.28,329.842 182.351,332.234 183.422,334.605 184.492,336.95 185.563,339.262 186.634,341.536 
  187.705,343.764 188.776,345.942 189.847,348.063 190.918,350.12 191.989,352.108 193.06,354.02 194.131,355.851 195.201,357.595 196.272,359.245 197.343,360.797 
  198.414,362.244 199.485,363.581 200.556,364.802 201.627,365.902 202.698,366.877 203.769,367.721 204.84,368.429 205.91,368.997 206.981,369.421 208.052,369.696 
  209.123,369.818 210.194,369.784 211.265,369.59 212.336,369.233 213.407,368.711 214.478,368.019 215.548,367.156 216.619,366.12 217.69,364.909 218.761,363.521 
  219.832,361.955 220.903,360.21 221.974,358.286 223.045,356.181 224.116,353.896 225.187,351.431 226.257,348.787 227.328,345.965 228.399,342.966 229.47,339.791 
  230.541,336.442 231.612,332.922 232.683,329.233 233.754,325.377 234.825,321.359 235.896,317.181 236.966,312.848 238.037,308.362 239.108,303.73 240.179,298.954 
  241.25,294.041 242.321,288.996 243.392,283.823 244.463,278.529 245.534,273.12 246.605,267.602 247.675,261.982 248.746,256.266 249.817,250.461 250.888,244.575 
  251.959,238.614 253.03,232.586 254.101,226.5 255.172,220.362 256.243,214.181 257.314,207.965 258.384,201.723 259.455,195.461 260.526,189.19 261.597,182.918 
  262.668,176.652 263.739,170.402 264.81,164.177 265.881,157.985 266.952,151.835 268.023,145.735 269.093,139.694 270.164,133.721 271.235,127.824 272.306,122.012 
  273.377,116.293 274.448,110.675 275.519,105.167 276.59,99.7762 277.661,94.5111 278.731,89.3793 279.802,84.3882 280.873,79.5452 281.944,74.8575 283.015,70.3321 
  284.086,65.9757 285.157,61.7947 286.228,57.7955 287.299,53.984 288.37,50.3659 289.44,46.9467 290.511,43.7315 291.582,40.7252 292.653,37.9323 293.724,35.3569 
  294.795,33.0031 295.866,30.8744 296.937,28.974 298.008,27.3047 299.079,25.8692 300.149,24.6696 301.22,23.7077 302.291,22.985 303.362,22.5026 304.433,22.2612 
  305.504,22.2612 306.575,22.5026 307.646,22.985 308.717,23.7077 309.788,24.6696 310.858,25.8692 311.929,27.3047 313,28.974 314.071,30.8744 315.142,33.0031 
  316.213,35.3569 317.284,37.9323 318.355,40.7252 319.426,43.7315 320.497,46.9467 321.567,50.3659 322.638,53.984 323.709,57.7955 324.78,61.7947 325.851,65.9757 
  326.922,70.3321 327.993,74.8575 329.064,79.5452 330.135,84.3882 331.206,89.3793 332.276,94.5111 333.347,99.7762 334.418,105.167 335.489,110.675 336.56,116.293 
  337.631,122.012 338.702,127.824 339.773,133.721 340.844,139.694 341.914,145.735 342.985,151.835 344.056,157.985 345.127,164.177 346.198,170.402 347.269,176.652 
  348.34,182.918 349.411,189.19 350.482,195.461 351.553,201.723 352.623,207.965 353.694,214.181 354.765,220.362 355.836,226.5 356.907,232.586 357.978,238.614 
  359.049,244.575 360.12,250.461 361.191,256.266 362.262,261.982 363.332,267.602 364.403,273.12 365.474,278.529 366.545,283.823 367.616,288.996 368.687,294.041 
  369.758,298.954 370.829,303.73 371.9,308.362 372.971,312.848 374.041,317.181 375.112,321.359 376.183,325.377 377.254,329.233 378.325,332.922 379.396,336.442 
  380.467,339.791 381.538,342.966 382.609,345.965 383.68,348.787 384.75,351.431 385.821,353.896 386.892,356.181 387.963,358.286 389.034,360.21 390.105,361.955 
  391.176,363.521 392.247,364.909 393.318,366.12 394.389,367.156 395.459,368.019 396.53,368.711 397.601,369.233 398.672,369.59 399.743,369.784 400.814,369.818 
  401.885,369.696 402.956,369.421 404.027,368.997 405.097,368.429 406.168,367.721 407.239,366.877 408.31,365.902 409.381,364.802 410.452,363.581 411.523,362.244 
  412.594,360.797 413.665,359.245 414.736,357.595 415.806,355.851 416.877,354.02 417.948,352.108 419.019,350.12 420.09,348.063 421.161,345.942 422.232,343.764 
  423.303,341.536 424.374,339.262 425.445,336.95 426.515,334.605 427.586,332.234 428.657,329.842 429.728,327.436 430.799,325.022 431.87,322.605 432.941,320.191 
  434.012,317.786 435.083,315.396 436.154,313.025 437.224,310.68 438.295,308.365 439.366,306.085 440.437,303.846 441.508,301.652 442.579,299.507 443.65,297.417 
  444.721,295.384 445.792,293.414 446.863,291.51 447.933,289.675 449.004,287.913 450.075,286.227 451.146,284.62 452.217,283.095 453.288,281.654 454.359,280.299 
  455.43,279.033 456.501,277.858 457.572,276.774 458.642,275.783 459.713,274.887 460.784,274.086 461.855,273.381 462.926,272.772 463.997,272.259 465.068,271.843 
  466.139,271.523 467.21,271.298 468.28,271.169 469.351,271.133 470.422,271.19 471.493,271.339 472.564,271.578 473.635,271.905 474.706,272.318 475.777,272.815 
  476.848,273.395 477.919,274.054 478.989,274.789 480.06,275.6 481.131,276.481 482.202,277.43 483.273,278.445 484.344,279.522 485.415,280.657 486.486,281.847 
  487.557,283.089 488.628,284.378 489.698,285.711 490.769,287.085 491.84,288.495 492.911,289.938 493.982,291.41 495.053,292.906 496.124,294.423 497.195,295.957 
  498.266,297.504 499.337,299.059 500.407,300.62 501.478,302.181 502.549,303.74 503.62,305.292 504.691,306.834 505.762,308.362 506.833,309.873 507.904,311.362 
  508.975,312.826 510.046,314.262 511.116,315.668 512.187,317.038 513.258,318.372 514.329,319.665 515.4,320.915 516.471,322.119 517.542,323.275 518.613,324.38 
  519.684,325.432 520.755,326.429 521.825,327.37 522.896,328.252 523.967,329.073 525.038,329.833 526.109,330.53 527.18,331.162 528.251,331.73 529.322,332.232 
  530.393,332.667 531.463,333.036 532.534,333.337 533.605,333.571 534.676,333.737 535.747,333.837 536.818,333.87 537.889,333.837 538.96,333.738 540.031,333.575 
  541.102,333.348 542.172,333.059 543.243,332.708 544.314,332.298 545.385,331.829 546.456,331.304 547.527,330.725 548.598,330.092 549.669,329.409 550.74,328.677 
  551.811,327.898 552.881,327.076 553.952,326.212 555.023,325.308 556.094,324.369 557.165,323.395 558.236,322.39 559.307,321.357 560.378,320.298 561.449,319.217 
  562.52,318.115 563.59,316.997 564.661,315.864 565.732,314.721 566.803,313.569 567.874,312.413 568.945,311.253 570.016,310.095 571.087,308.94 572.158,307.791 
  
  "/>
<polyline clip-path="url(#clip352)" style="stroke:#3da44d; stroke-width:1; stroke-opacity:1; fill:none" points="
  37.7794,307.791 38.8503,308.939 39.9212,310.09 40.9921,311.237 42.063,312.373 43.1339,313.493 44.2048,314.589 45.2757,315.655 46.3466,316.685 47.4175,317.673 
  48.4884,318.612 49.5593,319.497 50.6302,320.323 51.7011,321.083 52.772,321.774 53.8429,322.391 54.9138,322.93 55.9847,323.386 57.0555,323.757 58.1264,324.039 
  59.1973,324.231 60.2682,324.331 61.3391,324.336 62.41,324.247 63.4809,324.063 64.5518,323.784 65.6227,323.411 66.6936,322.944 67.7645,322.387 68.8354,321.741 
  69.9063,321.01 70.9772,320.195 72.0481,319.303 73.119,318.336 74.1899,317.299 75.2608,316.199 76.3317,315.04 77.4026,313.828 78.4735,312.57 79.5444,311.274 
  80.6153,309.944 81.6862,308.59 82.7571,307.218 83.828,305.836 84.8989,304.452 85.9698,303.073 87.0407,301.708 88.1116,300.364 89.1825,299.05 90.2534,297.772 
  91.3243,296.539 92.3952,295.359 93.4661,294.237 94.537,293.182 95.6079,292.2 96.6788,291.297 97.7497,290.48 98.8206,289.753 99.8915,289.122 100.962,288.591 
  102.033,288.165 103.104,287.847 104.175,287.64 105.246,287.547 106.317,287.568 107.388,287.706 108.459,287.961 109.53,288.332 110.6,288.818 111.671,289.419 
  112.742,290.132 113.813,290.955 114.884,291.883 115.955,292.913 117.026,294.04 118.097,295.259 119.168,296.564 120.239,297.948 121.309,299.405 122.38,300.927 
  123.451,302.507 124.522,304.136 125.593,305.805 126.664,307.505 127.735,309.228 128.806,310.964 129.877,312.702 130.948,314.434 132.018,316.149 133.089,317.837 
  134.16,319.489 135.231,321.095 136.302,322.644 137.373,324.128 138.444,325.538 139.515,326.863 140.586,328.097 141.657,329.23 142.727,330.255 143.798,331.164 
  144.869,331.952 145.94,332.611 147.011,333.137 148.082,333.524 149.153,333.769 150.224,333.868 151.295,333.818 152.365,333.619 153.436,333.268 154.507,332.766 
  155.578,332.113 156.649,331.31 157.72,330.361 158.791,329.269 159.862,328.037 160.933,326.67 162.004,325.174 163.074,323.556 164.145,321.822 165.216,319.981 
  166.287,318.042 167.358,316.014 168.429,313.906 169.5,311.73 170.571,309.497 171.642,307.218 172.713,304.905 173.783,302.571 174.854,300.229 175.925,297.892 
  176.996,295.572 178.067,293.283 179.138,291.039 180.209,288.853 181.28,286.738 182.351,284.707 183.422,282.774 184.492,280.949 185.563,279.247 186.634,277.678 
  187.705,276.254 188.776,274.985 189.847,273.882 190.918,272.953 191.989,272.207 193.06,271.651 194.131,271.293 195.201,271.139 196.272,271.192 197.343,271.458 
  198.414,271.938 199.485,272.635 200.556,273.548 201.627,274.678 202.698,276.022 203.769,277.578 204.84,279.341 205.91,281.307 206.981,283.468 208.052,285.818 
  209.123,288.346 210.194,291.044 211.265,293.9 212.336,296.903 213.407,300.038 214.478,303.293 215.548,306.651 216.619,310.098 217.69,313.615 218.761,317.187 
  219.832,320.794 220.903,324.418 221.974,328.039 223.045,331.638 224.116,335.194 225.187,338.688 226.257,342.097 227.328,345.403 228.399,348.583 229.47,351.618 
  230.541,354.486 231.612,357.168 232.683,359.643 233.754,361.892 234.825,363.897 235.896,365.639 236.966,367.101 238.037,368.265 239.108,369.117 240.179,369.641 
  241.25,369.824 242.321,369.654 243.392,369.118 244.463,368.208 245.534,366.914 246.605,365.228 247.675,363.146 248.746,360.663 249.817,357.776 250.888,354.484 
  251.959,350.787 253.03,346.687 254.101,342.188 255.172,337.295 256.243,332.015 257.314,326.357 258.384,320.329 259.455,313.945 260.526,307.218 261.597,300.161 
  262.668,292.792 263.739,285.128 264.81,277.188 265.881,268.992 266.952,260.562 268.023,251.92 269.093,243.091 270.164,234.099 271.235,224.97 272.306,215.73 
  273.377,206.407 274.448,197.028 275.519,187.622 276.59,178.217 277.661,168.844 278.731,159.529 279.802,150.305 280.873,141.198 281.944,132.239 283.015,123.456 
  284.086,114.878 285.157,106.533 286.228,98.4479 287.299,90.6493 288.37,83.1633 289.44,76.0145 290.511,69.2269 291.582,62.8232 292.653,56.8248 293.724,51.252 
  294.795,46.1236 295.866,41.4569 296.937,37.2679 298.008,33.5706 299.079,30.3778 300.149,27.7002 301.22,25.5471 302.291,23.9258 303.362,22.8419 304.433,22.299 
  305.504,22.299 306.575,22.8419 307.646,23.9258 308.717,25.5471 309.788,27.7002 310.858,30.3778 311.929,33.5706 313,37.2679 314.071,41.4569 315.142,46.1236 
  316.213,51.252 317.284,56.8248 318.355,62.8232 319.426,69.2269 320.497,76.0145 321.567,83.1633 322.638,90.6493 323.709,98.4479 324.78,106.533 325.851,114.878 
  326.922,123.456 327.993,132.239 329.064,141.198 330.135,150.305 331.206,159.529 332.276,168.844 333.347,178.217 334.418,187.622 335.489,197.028 336.56,206.407 
  337.631,215.73 338.702,224.97 339.773,234.099 340.844,243.091 341.914,251.92 342.985,260.562 344.056,268.992 345.127,277.188 346.198,285.128 347.269,292.792 
  348.34,300.161 349.411,307.218 350.482,313.945 351.553,320.329 352.623,326.357 353.694,332.015 354.765,337.295 355.836,342.188 356.907,346.687 357.978,350.787 
  359.049,354.484 360.12,357.776 361.191,360.663 362.262,363.146 363.332,365.228 364.403,366.914 365.474,368.208 366.545,369.118 367.616,369.654 368.687,369.824 
  369.758,369.641 370.829,369.117 371.9,368.265 372.971,367.101 374.041,365.639 375.112,363.897 376.183,361.892 377.254,359.643 378.325,357.168 379.396,354.486 
  380.467,351.618 381.538,348.583 382.609,345.403 383.68,342.097 384.75,338.688 385.821,335.194 386.892,331.638 387.963,328.039 389.034,324.418 390.105,320.794 
  391.176,317.187 392.247,313.615 393.318,310.098 394.389,306.651 395.459,303.293 396.53,300.038 397.601,296.903 398.672,293.9 399.743,291.044 400.814,288.346 
  401.885,285.818 402.956,283.468 404.027,281.307 405.097,279.341 406.168,277.578 407.239,276.022 408.31,274.678 409.381,273.548 410.452,272.635 411.523,271.938 
  412.594,271.458 413.665,271.192 414.736,271.139 415.806,271.293 416.877,271.651 417.948,272.207 419.019,272.953 420.09,273.882 421.161,274.985 422.232,276.254 
  423.303,277.678 424.374,279.247 425.445,280.949 426.515,282.774 427.586,284.707 428.657,286.738 429.728,288.853 430.799,291.039 431.87,293.283 432.941,295.572 
  434.012,297.892 435.083,300.229 436.154,302.571 437.224,304.905 438.295,307.218 439.366,309.497 440.437,311.73 441.508,313.906 442.579,316.014 443.65,318.042 
  444.721,319.981 445.792,321.822 446.863,323.556 447.933,325.174 449.004,326.67 450.075,328.037 451.146,329.269 452.217,330.361 453.288,331.31 454.359,332.113 
  455.43,332.766 456.501,333.268 457.572,333.619 458.642,333.818 459.713,333.868 460.784,333.769 461.855,333.524 462.926,333.137 463.997,332.611 465.068,331.952 
  466.139,331.164 467.21,330.255 468.28,329.23 469.351,328.097 470.422,326.863 471.493,325.538 472.564,324.128 473.635,322.644 474.706,321.095 475.777,319.489 
  476.848,317.837 477.919,316.149 478.989,314.434 480.06,312.702 481.131,310.964 482.202,309.228 483.273,307.505 484.344,305.805 485.415,304.136 486.486,302.507 
  487.557,300.927 488.628,299.405 489.698,297.948 490.769,296.564 491.84,295.259 492.911,294.04 493.982,292.913 495.053,291.883 496.124,290.955 497.195,290.132 
  498.266,289.419 499.337,288.818 500.407,288.332 501.478,287.961 502.549,287.706 503.62,287.568 504.691,287.547 505.762,287.64 506.833,287.847 507.904,288.165 
  508.975,288.591 510.046,289.122 511.116,289.753 512.187,290.48 513.258,291.297 514.329,292.2 515.4,293.182 516.471,294.237 517.542,295.359 518.613,296.539 
  519.684,297.772 520.755,299.05 521.825,300.364 522.896,301.708 523.967,303.073 525.038,304.452 526.109,305.836 527.18,307.218 528.251,308.59 529.322,309.944 
  530.393,311.274 531.463,312.57 532.534,313.828 533.605,315.04 534.676,316.199 535.747,317.299 536.818,318.336 537.889,319.303 538.96,320.195 540.031,321.01 
  541.102,321.741 542.172,322.387 543.243,322.944 544.314,323.411 545.385,323.784 546.456,324.063 547.527,324.247 548.598,324.336 549.669,324.331 550.74,324.231 
  551.811,324.039 552.881,323.757 553.952,323.386 555.023,322.93 556.094,322.391 557.165,321.774 558.236,321.083 559.307,320.323 560.378,319.497 561.449,318.612 
  562.52,317.673 563.59,316.685 564.661,315.655 565.732,314.589 566.803,313.493 567.874,312.373 568.945,311.237 570.016,310.09 571.087,308.939 572.158,307.791 
  
  "/>
<polyline clip-path="url(#clip352)" style="stroke:#c271d2; stroke-width:1; stroke-opacity:1; fill:none" points="
  37.7794,307.791 38.8503,308.938 39.9212,310.083 40.9921,311.214 42.063,312.319 43.1339,313.387 44.2048,314.407 45.2757,315.368 46.3466,316.26 47.4175,317.073 
  48.4884,317.798 49.5593,318.427 50.6302,318.954 51.7011,319.371 52.772,319.674 53.8429,319.858 54.9138,319.922 55.9847,319.862 57.0555,319.679 58.1264,319.373 
  59.1973,318.947 60.2682,318.403 61.3391,317.746 62.41,316.983 63.4809,316.118 64.5518,315.162 65.6227,314.122 66.6936,313.008 67.7645,311.83 68.8354,310.601 
  69.9063,309.332 70.9772,308.036 72.0481,306.726 73.119,305.414 74.1899,304.114 75.2608,302.84 76.3317,301.604 77.4026,300.419 78.4735,299.298 79.5444,298.254 
  80.6153,297.296 81.6862,296.436 82.7571,295.683 83.828,295.047 84.8989,294.534 85.9698,294.151 87.0407,293.904 88.1116,293.795 89.1825,293.828 90.2534,294.004 
  91.3243,294.322 92.3952,294.78 93.4661,295.376 94.537,296.104 95.6079,296.958 96.6788,297.932 97.7497,299.017 98.8206,300.202 99.8915,301.476 100.962,302.829 
  102.033,304.246 103.104,305.715 104.175,307.22 105.246,308.748 106.317,310.282 107.388,311.807 108.459,313.308 109.53,314.769 110.6,316.175 111.671,317.511 
  112.742,318.764 113.813,319.918 114.884,320.961 115.955,321.882 117.026,322.67 118.097,323.316 119.168,323.81 120.239,324.147 121.309,324.321 122.38,324.328 
  123.451,324.167 124.522,323.837 125.593,323.339 126.664,322.677 127.735,321.855 128.806,320.879 129.877,319.759 130.948,318.502 132.018,317.12 133.089,315.626 
  134.16,314.033 135.231,312.357 136.302,310.612 137.373,308.817 138.444,306.988 139.515,305.144 140.586,303.302 141.657,301.482 142.727,299.703 143.798,297.982 
  144.869,296.339 145.94,294.79 147.011,293.353 148.082,292.044 149.153,290.877 150.224,289.867 151.295,289.026 152.365,288.365 153.436,287.893 154.507,287.617 
  155.578,287.543 156.649,287.675 157.72,288.014 158.791,288.561 159.862,289.311 160.933,290.262 162.004,291.406 163.074,292.734 164.145,294.237 165.216,295.901 
  166.287,297.712 167.358,299.655 168.429,301.711 169.5,303.861 170.571,306.086 171.642,308.365 172.713,310.674 173.783,312.991 174.854,315.294 175.925,317.558 
  176.996,319.76 178.067,321.877 179.138,323.886 180.209,325.765 181.28,327.492 182.351,329.048 183.422,330.415 184.492,331.574 185.563,332.51 186.634,333.211 
  187.705,333.665 188.776,333.862 189.847,333.796 190.918,333.462 191.989,332.86 193.06,331.989 194.131,330.854 195.201,329.461 196.272,327.818 197.343,325.938 
  198.414,323.834 199.485,321.523 200.556,319.023 201.627,316.357 202.698,313.548 203.769,310.62 204.84,307.6 205.91,304.517 206.981,301.401 208.052,298.28 
  209.123,295.188 210.194,292.155 211.265,289.213 212.336,286.394 213.407,283.728 214.478,281.245 215.548,278.976 216.619,276.947 217.69,275.185 218.761,273.714 
  219.832,272.556 220.903,271.73 221.974,271.253 223.045,271.139 224.116,271.399 225.187,272.039 226.257,273.064 227.328,274.474 228.399,276.267 229.47,278.434 
  230.541,280.966 231.612,283.847 232.683,287.06 233.754,290.583 234.825,294.391 235.896,298.455 236.966,302.743 238.037,307.22 239.108,311.849 240.179,316.589 
  241.25,321.397 242.321,326.23 243.392,331.04 244.463,335.781 245.534,340.404 246.605,344.86 247.675,349.099 248.746,353.074 249.817,356.734 250.888,360.034 
  251.959,362.926 253.03,365.368 254.101,367.316 255.172,368.731 256.243,369.577 257.314,369.821 258.384,369.432 259.455,368.386 260.526,366.66 261.597,364.237 
  262.668,361.105 263.739,357.256 264.81,352.686 265.881,347.398 266.952,341.4 268.023,334.703 269.093,327.326 270.164,319.29 271.235,310.624 272.306,301.36 
  273.377,291.535 274.448,281.191 275.519,270.375 276.59,259.136 277.661,247.528 278.731,235.608 279.802,223.437 280.873,211.077 281.944,198.594 283.015,186.054 
  284.086,173.525 285.157,161.076 286.228,148.778 287.299,136.698 288.37,124.907 289.44,113.471 290.511,102.456 291.582,91.9281 292.653,81.9477 293.724,72.5741 
  294.795,63.8629 295.866,55.8659 296.937,48.6311 298.008,42.202 299.079,36.6171 300.149,31.9104 301.22,28.1103 302.291,25.2398 303.362,23.3164 304.433,22.3518 
  305.504,22.3518 306.575,23.3164 307.646,25.2398 308.717,28.1103 309.788,31.9104 310.858,36.6171 311.929,42.202 313,48.6311 314.071,55.8659 315.142,63.8629 
  316.213,72.5741 317.284,81.9477 318.355,91.9281 319.426,102.456 320.497,113.471 321.567,124.907 322.638,136.698 323.709,148.778 324.78,161.076 325.851,173.525 
  326.922,186.054 327.993,198.594 329.064,211.077 330.135,223.437 331.206,235.608 332.276,247.528 333.347,259.136 334.418,270.375 335.489,281.191 336.56,291.535 
  337.631,301.36 338.702,310.624 339.773,319.29 340.844,327.326 341.914,334.703 342.985,341.4 344.056,347.398 345.127,352.686 346.198,357.256 347.269,361.105 
  348.34,364.237 349.411,366.66 350.482,368.386 351.553,369.432 352.623,369.821 353.694,369.577 354.765,368.731 355.836,367.316 356.907,365.368 357.978,362.926 
  359.049,360.034 360.12,356.734 361.191,353.074 362.262,349.099 363.332,344.86 364.403,340.404 365.474,335.781 366.545,331.04 367.616,326.23 368.687,321.397 
  369.758,316.589 370.829,311.849 371.9,307.22 372.971,302.743 374.041,298.455 375.112,294.391 376.183,290.583 377.254,287.06 378.325,283.847 379.396,280.966 
  380.467,278.434 381.538,276.267 382.609,274.474 383.68,273.064 384.75,272.039 385.821,271.399 386.892,271.139 387.963,271.253 389.034,271.73 390.105,272.556 
  391.176,273.714 392.247,275.185 393.318,276.947 394.389,278.976 395.459,281.245 396.53,283.728 397.601,286.394 398.672,289.213 399.743,292.155 400.814,295.188 
  401.885,298.28 402.956,301.401 404.027,304.517 405.097,307.6 406.168,310.62 407.239,313.548 408.31,316.357 409.381,319.023 410.452,321.523 411.523,323.834 
  412.594,325.938 413.665,327.818 414.736,329.461 415.806,330.854 416.877,331.989 417.948,332.86 419.019,333.462 420.09,333.796 421.161,333.862 422.232,333.665 
  423.303,333.211 424.374,332.51 425.445,331.574 426.515,330.415 427.586,329.048 428.657,327.492 429.728,325.765 430.799,323.886 431.87,321.877 432.941,319.76 
  434.012,317.558 435.083,315.294 436.154,312.991 437.224,310.674 438.295,308.365 439.366,306.086 440.437,303.861 441.508,301.711 442.579,299.655 443.65,297.712 
  444.721,295.901 445.792,294.237 446.863,292.734 447.933,291.406 449.004,290.262 450.075,289.311 451.146,288.561 452.217,288.014 453.288,287.675 454.359,287.543 
  455.43,287.617 456.501,287.893 457.572,288.365 458.642,289.026 459.713,289.867 460.784,290.877 461.855,292.044 462.926,293.353 463.997,294.79 465.068,296.339 
  466.139,297.982 467.21,299.703 468.28,301.482 469.351,303.302 470.422,305.144 471.493,306.988 472.564,308.817 473.635,310.612 474.706,312.357 475.777,314.033 
  476.848,315.626 477.919,317.12 478.989,318.502 480.06,319.759 481.131,320.879 482.202,321.855 483.273,322.677 484.344,323.339 485.415,323.837 486.486,324.167 
  487.557,324.328 488.628,324.321 489.698,324.147 490.769,323.81 491.84,323.316 492.911,322.67 493.982,321.882 495.053,320.961 496.124,319.918 497.195,318.764 
  498.266,317.511 499.337,316.175 500.407,314.769 501.478,313.308 502.549,311.807 503.62,310.282 504.691,308.748 505.762,307.22 506.833,305.715 507.904,304.246 
  508.975,302.829 510.046,301.476 511.116,300.202 512.187,299.017 513.258,297.932 514.329,296.958 515.4,296.104 516.471,295.376 517.542,294.78 518.613,294.322 
  519.684,294.004 520.755,293.828 521.825,293.795 522.896,293.904 523.967,294.151 525.038,294.534 526.109,295.047 527.18,295.683 528.251,296.436 529.322,297.296 
  530.393,298.254 531.463,299.298 532.534,300.419 533.605,301.604 534.676,302.84 535.747,304.114 536.818,305.414 537.889,306.726 538.96,308.036 540.031,309.332 
  541.102,310.601 542.172,311.83 543.243,313.008 544.314,314.122 545.385,315.162 546.456,316.118 547.527,316.983 548.598,317.746 549.669,318.403 550.74,318.947 
  551.811,319.373 552.881,319.679 553.952,319.862 555.023,319.922 556.094,319.858 557.165,319.674 558.236,319.371 559.307,318.954 560.378,318.427 561.449,317.798 
  562.52,317.073 563.59,316.26 564.661,315.368 565.732,314.407 566.803,313.387 567.874,312.319 568.945,311.214 570.016,310.083 571.087,308.938 572.158,307.791 
  
  "/>
<polyline clip-path="url(#clip352)" style="stroke:#ac8d18; stroke-width:1; stroke-opacity:1; fill:none" points="
  37.7794,307.791 38.8503,308.937 39.9212,310.074 40.9921,311.185 42.063,312.25 43.1339,313.253 44.2048,314.177 45.2757,315.008 46.3466,315.73 47.4175,316.333 
  48.4884,316.804 49.5593,317.137 50.6302,317.323 51.7011,317.36 52.772,317.244 53.8429,316.978 54.9138,316.563 55.9847,316.005 57.0555,315.311 58.1264,314.492 
  59.1973,313.559 60.2682,312.527 61.3391,311.41 62.41,310.225 63.4809,308.991 64.5518,307.728 65.6227,306.454 66.6936,305.189 67.7645,303.955 68.8354,302.771 
  69.9063,301.655 70.9772,300.627 72.0481,299.704 73.119,298.9 74.1899,298.231 75.2608,297.707 76.3317,297.339 77.4026,297.134 78.4735,297.097 79.5444,297.229 
  80.6153,297.53 81.6862,297.998 82.7571,298.626 83.828,299.405 84.8989,300.326 85.9698,301.375 87.0407,302.536 88.1116,303.792 89.1825,305.124 90.2534,306.512 
  91.3243,307.934 92.3952,309.369 93.4661,310.792 94.537,312.183 95.6079,313.517 96.6788,314.775 97.7497,315.934 98.8206,316.976 99.8915,317.882 100.962,318.637 
  102.033,319.228 103.104,319.642 104.175,319.873 105.246,319.914 106.317,319.762 107.388,319.418 108.459,318.885 109.53,318.17 110.6,317.281 111.671,316.232 
  112.742,315.036 113.813,313.712 114.884,312.278 115.955,310.757 117.026,309.172 118.097,307.546 119.168,305.905 120.239,304.275 121.309,302.683 122.38,301.153 
  123.451,299.71 124.522,298.38 125.593,297.183 126.664,296.141 127.735,295.272 128.806,294.591 129.877,294.113 130.948,293.847 132.018,293.799 133.089,293.974 
  134.16,294.372 135.231,294.988 136.302,295.816 137.373,296.845 138.444,298.062 139.515,299.45 140.586,300.989 141.657,302.656 142.727,304.427 143.798,306.276 
  144.869,308.173 145.94,310.09 147.011,311.996 148.082,313.861 149.153,315.655 150.224,317.349 151.295,318.913 152.365,320.323 153.436,321.552 154.507,322.58 
  155.578,323.386 156.649,323.955 157.72,324.275 158.791,324.336 159.862,324.135 160.933,323.67 162.004,322.944 163.074,321.966 164.145,320.747 165.216,319.303 
  166.287,317.652 167.358,315.818 168.429,313.828 169.5,311.71 170.571,309.495 171.642,307.218 172.713,304.913 173.783,302.616 174.854,300.364 175.925,298.193 
  176.996,296.14 178.067,294.237 179.138,292.519 180.209,291.015 181.28,289.753 182.351,288.757 183.422,288.047 184.492,287.64 185.563,287.548 186.634,287.778 
  187.705,288.332 188.776,289.206 189.847,290.394 190.918,291.883 191.989,293.654 193.06,295.685 194.131,297.948 195.201,300.413 196.272,303.045 197.343,305.805 
  198.414,308.652 199.485,311.543 200.556,314.434 201.627,317.278 202.698,320.03 203.769,322.644 204.84,325.077 205.91,327.285 206.981,329.23 208.052,330.875 
  209.123,332.186 210.194,333.137 211.265,333.703 212.336,333.868 213.407,333.619 214.478,332.95 215.548,331.862 216.619,330.361 217.69,328.463 218.761,326.185 
  219.832,323.556 220.903,320.606 221.974,317.375 223.045,313.906 224.116,310.247 225.187,306.45 226.257,302.571 227.328,298.67 228.399,294.805 229.47,291.039 
  230.541,287.435 231.612,284.051 232.683,280.949 233.754,278.186 234.825,275.813 235.896,273.882 236.966,272.434 238.037,271.51 239.108,271.139 240.179,271.346 
  241.25,272.146 242.321,273.548 243.392,275.55 244.463,278.143 245.534,281.307 246.605,285.014 247.675,289.227 248.746,293.9 249.817,298.979 250.888,304.402 
  251.959,310.098 253.03,315.992 254.101,322.001 255.172,328.039 256.243,334.015 257.314,339.834 258.384,345.403 259.455,350.624 260.526,355.401 261.597,359.643 
  262.668,363.257 263.739,366.158 264.81,368.265 265.881,369.504 266.952,369.807 268.023,369.118 269.093,367.388 270.164,364.579 271.235,360.663 272.306,355.626 
  273.377,349.465 274.448,342.188 275.519,333.818 276.59,324.388 277.661,313.945 278.731,302.549 279.802,290.269 280.873,277.188 281.944,263.396 283.015,248.997 
  284.086,234.099 285.157,218.821 286.228,203.285 287.299,187.622 288.37,171.963 289.44,156.443 290.511,141.198 291.582,126.362 292.653,112.069 293.724,98.4479 
  294.795,85.6224 295.866,73.7107 296.937,62.8232 298.008,53.0611 299.079,44.5159 300.149,37.2679 301.22,31.3853 302.291,26.9239 303.362,23.9258 304.433,22.4197 
  305.504,22.4197 306.575,23.9258 307.646,26.9239 308.717,31.3853 309.788,37.2679 310.858,44.5159 311.929,53.0611 313,62.8232 314.071,73.7107 315.142,85.6224 
  316.213,98.4479 317.284,112.069 318.355,126.362 319.426,141.198 320.497,156.443 321.567,171.963 322.638,187.622 323.709,203.285 324.78,218.821 325.851,234.099 
  326.922,248.997 327.993,263.396 329.064,277.188 330.135,290.269 331.206,302.549 332.276,313.945 333.347,324.388 334.418,333.818 335.489,342.188 336.56,349.465 
  337.631,355.626 338.702,360.663 339.773,364.579 340.844,367.388 341.914,369.118 342.985,369.807 344.056,369.504 345.127,368.265 346.198,366.158 347.269,363.257 
  348.34,359.643 349.411,355.401 350.482,350.624 351.553,345.403 352.623,339.834 353.694,334.015 354.765,328.039 355.836,322.001 356.907,315.992 357.978,310.098 
  359.049,304.402 360.12,298.979 361.191,293.9 362.262,289.227 363.332,285.014 364.403,281.307 365.474,278.143 366.545,275.55 367.616,273.548 368.687,272.146 
  369.758,271.346 370.829,271.139 371.9,271.51 372.971,272.434 374.041,273.882 375.112,275.813 376.183,278.186 377.254,280.949 378.325,284.051 379.396,287.435 
  380.467,291.039 381.538,294.805 382.609,298.67 383.68,302.571 384.75,306.45 385.821,310.247 386.892,313.906 387.963,317.375 389.034,320.606 390.105,323.556 
  391.176,326.185 392.247,328.463 393.318,330.361 394.389,331.862 395.459,332.95 396.53,333.619 397.601,333.868 398.672,333.703 399.743,333.137 400.814,332.186 
  401.885,330.875 402.956,329.23 404.027,327.285 405.097,325.077 406.168,322.644 407.239,320.03 408.31,317.278 409.381,314.434 410.452,311.543 411.523,308.652 
  412.594,305.805 413.665,303.045 414.736,300.413 415.806,297.948 416.877,295.685 417.948,293.654 419.019,291.883 420.09,290.394 421.161,289.206 422.232,288.332 
  423.303,287.778 424.374,287.548 425.445,287.64 426.515,288.047 427.586,288.757 428.657,289.753 429.728,291.015 430.799,292.519 431.87,294.237 432.941,296.14 
  434.012,298.193 435.083,300.364 436.154,302.616 437.224,304.913 438.295,307.218 439.366,309.495 440.437,311.71 441.508,313.828 442.579,315.818 443.65,317.652 
  444.721,319.303 445.792,320.747 446.863,321.966 447.933,322.944 449.004,323.67 450.075,324.135 451.146,324.336 452.217,324.275 453.288,323.955 454.359,323.386 
  455.43,322.58 456.501,321.552 457.572,320.323 458.642,318.913 459.713,317.349 460.784,315.655 461.855,313.861 462.926,311.996 463.997,310.09 465.068,308.173 
  466.139,306.276 467.21,304.427 468.28,302.656 469.351,300.989 470.422,299.45 471.493,298.062 472.564,296.845 473.635,295.816 474.706,294.988 475.777,294.372 
  476.848,293.974 477.919,293.799 478.989,293.847 480.06,294.113 481.131,294.591 482.202,295.272 483.273,296.141 484.344,297.183 485.415,298.38 486.486,299.71 
  487.557,301.153 488.628,302.683 489.698,304.275 490.769,305.905 491.84,307.546 492.911,309.172 493.982,310.757 495.053,312.278 496.124,313.712 497.195,315.036 
  498.266,316.232 499.337,317.281 500.407,318.17 501.478,318.885 502.549,319.418 503.62,319.762 504.691,319.914 505.762,319.873 506.833,319.642 507.904,319.228 
  508.975,318.637 510.046,317.882 511.116,316.976 512.187,315.934 513.258,314.775 514.329,313.517 515.4,312.183 516.471,310.792 517.542,309.369 518.613,307.934 
  519.684,306.512 520.755,305.124 521.825,303.792 522.896,302.536 523.967,301.375 525.038,300.326 526.109,299.405 527.18,298.626 528.251,297.998 529.322,297.53 
  530.393,297.229 531.463,297.097 532.534,297.134 533.605,297.339 534.676,297.707 535.747,298.231 536.818,298.9 537.889,299.704 538.96,300.627 540.031,301.655 
  541.102,302.771 542.172,303.955 543.243,305.189 544.314,306.454 545.385,307.728 546.456,308.991 547.527,310.225 548.598,311.41 549.669,312.527 550.74,313.559 
  551.811,314.492 552.881,315.311 553.952,316.005 555.023,316.563 556.094,316.978 557.165,317.244 558.236,317.36 559.307,317.323 560.378,317.137 561.449,316.804 
  562.52,316.333 563.59,315.73 564.661,315.008 565.732,314.177 566.803,313.253 567.874,312.25 568.945,311.185 570.016,310.074 571.087,308.937 572.158,307.791 
  
  "/>
<path clip-path="url(#clip350)" d="
M493.187 114.812 L569.308 114.812 L569.308 24.0924 L493.187 24.0924  Z
  " fill="#ffffff" fill-rule="evenodd" fill-opacity="1"/>
<polyline clip-path="url(#clip350)" style="stroke:#000000; stroke-width:1; stroke-opacity:1; fill:none" points="
  493.187,114.812 569.308,114.812 569.308,24.0924 493.187,24.0924 493.187,114.812 
  "/>
<polyline clip-path="url(#clip350)" style="stroke:#009af9; stroke-width:1; stroke-opacity:1; fill:none" points="
  499.481,39.2124 537.243,39.2124 
  "/>
<path clip-path="url(#clip350)" d="M 0 0 M546.998 44.1342 Q546.546 45.2916 546.118 45.6446 Q545.69 45.9977 544.972 45.9977 L544.122 45.9977 L544.122 45.1065 L544.747 45.1065 Q545.187 45.1065 545.43 44.8981 Q545.673 44.6898 545.968 43.9143 L546.159 43.4282 L543.537 37.0509 L544.666 37.0509 L546.691 42.1204 L548.717 37.0509 L549.845 37.0509 L546.998 44.1342 Z" fill="#000000" fill-rule="evenodd" fill-opacity="1" /><path clip-path="url(#clip350)" d="M 0 0 M551.315 42.5486 L553.225 42.5486 L553.225 35.9572 L551.147 36.3739 L551.147 35.3091 L553.213 34.8924 L554.382 34.8924 L554.382 42.5486 L556.292 42.5486 L556.292 43.5324 L551.315 43.5324 L551.315 42.5486 Z" fill="#000000" fill-rule="evenodd" fill-opacity="1" /><polyline clip-path="url(#clip350)" style="stroke:#e26f46; stroke-width:1; stroke-opacity:1; fill:none" points="
  499.481,54.3324 537.243,54.3324 
  "/>
<path clip-path="url(#clip350)" d="M 0 0 M546.998 59.2542 Q546.546 60.4116 546.118 60.7646 Q545.69 61.1177 544.972 61.1177 L544.122 61.1177 L544.122 60.2265 L544.747 60.2265 Q545.187 60.2265 545.43 60.0181 Q545.673 59.8098 545.968 59.0343 L546.159 58.5482 L543.537 52.1709 L544.666 52.1709 L546.691 57.2404 L548.717 52.1709 L549.845 52.1709 L546.998 59.2542 Z" fill="#000000" fill-rule="evenodd" fill-opacity="1" /><path clip-path="url(#clip350)" d="M 0 0 M552.119 57.6686 L556.199 57.6686 L556.199 58.6524 L550.713 58.6524 L550.713 57.6686 Q551.379 56.9799 552.524 55.8225 Q553.676 54.6594 553.971 54.3237 Q554.533 53.6929 554.752 53.2589 Q554.978 52.8191 554.978 52.3966 Q554.978 51.708 554.492 51.274 Q554.012 50.8399 553.236 50.8399 Q552.686 50.8399 552.073 51.0309 Q551.465 51.2219 550.771 51.6096 L550.771 50.4291 Q551.477 50.1455 552.09 50.0008 Q552.704 49.8561 553.213 49.8561 Q554.556 49.8561 555.354 50.5274 Q556.153 51.1987 556.153 52.3214 Q556.153 52.8538 555.95 53.3341 Q555.754 53.8087 555.227 54.4568 Q555.082 54.6246 554.307 55.429 Q553.531 56.2276 552.119 57.6686 Z" fill="#000000" fill-rule="evenodd" fill-opacity="1" /><polyline clip-path="url(#clip350)" style="stroke:#3da44d; stroke-width:1; stroke-opacity:1; fill:none" points="
  499.481,69.4524 537.243,69.4524 
  "/>
<path clip-path="url(#clip350)" d="M 0 0 M546.998 74.3742 Q546.546 75.5316 546.118 75.8846 Q545.69 76.2377 544.972 76.2377 L544.122 76.2377 L544.122 75.3465 L544.747 75.3465 Q545.187 75.3465 545.43 75.1381 Q545.673 74.9298 545.968 74.1543 L546.159 73.6682 L543.537 67.2909 L544.666 67.2909 L546.691 72.3604 L548.717 67.2909 L549.845 67.2909 L546.998 74.3742 Z" fill="#000000" fill-rule="evenodd" fill-opacity="1" /><path clip-path="url(#clip350)" d="M 0 0 M554.654 69.1138 Q555.493 69.2932 555.962 69.8604 Q556.436 70.4275 556.436 71.2608 Q556.436 72.5398 555.557 73.24 Q554.677 73.9402 553.057 73.9402 Q552.513 73.9402 551.934 73.8303 Q551.361 73.7261 550.748 73.512 L550.748 72.3835 Q551.234 72.6671 551.813 72.8117 Q552.391 72.9564 553.022 72.9564 Q554.122 72.9564 554.695 72.5224 Q555.273 72.0884 555.273 71.2608 Q555.273 70.4969 554.735 70.0687 Q554.203 69.6347 553.248 69.6347 L552.241 69.6347 L552.241 68.674 L553.294 68.674 Q554.156 68.674 554.614 68.3326 Q555.071 67.9854 555.071 67.3372 Q555.071 66.6717 554.596 66.3187 Q554.127 65.9599 553.248 65.9599 Q552.768 65.9599 552.218 66.0641 Q551.668 66.1683 551.008 66.3882 L551.008 65.3465 Q551.674 65.1613 552.252 65.0687 Q552.837 64.9761 553.352 64.9761 Q554.683 64.9761 555.458 65.5838 Q556.234 66.1856 556.234 67.2157 Q556.234 67.9333 555.823 68.431 Q555.412 68.9229 554.654 69.1138 Z" fill="#000000" fill-rule="evenodd" fill-opacity="1" /><polyline clip-path="url(#clip350)" style="stroke:#c271d2; stroke-width:1; stroke-opacity:1; fill:none" points="
  499.481,84.5724 537.243,84.5724 
  "/>
<path clip-path="url(#clip350)" d="M 0 0 M546.998 89.4942 Q546.546 90.6516 546.118 91.0046 Q545.69 91.3577 544.972 91.3577 L544.122 91.3577 L544.122 90.4665 L544.747 90.4665 Q545.187 90.4665 545.43 90.2581 Q545.673 90.0498 545.968 89.2743 L546.159 88.7882 L543.537 82.4109 L544.666 82.4109 L546.691 87.4804 L548.717 82.4109 L549.845 82.4109 L546.998 89.4942 Z" fill="#000000" fill-rule="evenodd" fill-opacity="1" /><path clip-path="url(#clip350)" d="M 0 0 M554.324 81.2709 L551.373 85.8831 L554.324 85.8831 L554.324 81.2709 M554.018 80.2524 L555.487 80.2524 L555.487 85.8831 L556.72 85.8831 L556.72 86.8554 L555.487 86.8554 L555.487 88.8924 L554.324 88.8924 L554.324 86.8554 L550.424 86.8554 L550.424 85.7269 L554.018 80.2524 Z" fill="#000000" fill-rule="evenodd" fill-opacity="1" /><polyline clip-path="url(#clip350)" style="stroke:#ac8d18; stroke-width:1; stroke-opacity:1; fill:none" points="
  499.481,99.6924 537.243,99.6924 
  "/>
<path clip-path="url(#clip350)" d="M 0 0 M546.998 104.614 Q546.546 105.772 546.118 106.125 Q545.69 106.478 544.972 106.478 L544.122 106.478 L544.122 105.586 L544.747 105.586 Q545.187 105.586 545.43 105.378 Q545.673 105.17 545.968 104.394 L546.159 103.908 L543.537 97.5309 L544.666 97.5309 L546.691 102.6 L548.717 97.5309 L549.845 97.5309 L546.998 104.614 Z" fill="#000000" fill-rule="evenodd" fill-opacity="1" /><path clip-path="url(#clip350)" d="M 0 0 M551.124 95.3724 L555.713 95.3724 L555.713 96.3562 L552.195 96.3562 L552.195 98.4742 Q552.449 98.3874 552.704 98.3469 Q552.958 98.3006 553.213 98.3006 Q554.66 98.3006 555.505 99.0934 Q556.35 99.8863 556.35 101.24 Q556.35 102.635 555.482 103.411 Q554.614 104.18 553.034 104.18 Q552.49 104.18 551.923 104.088 Q551.361 103.995 550.759 103.81 L550.759 102.635 Q551.28 102.919 551.836 103.058 Q552.391 103.196 553.011 103.196 Q554.012 103.196 554.596 102.67 Q555.181 102.143 555.181 101.24 Q555.181 100.338 554.596 99.811 Q554.012 99.2844 553.011 99.2844 Q552.542 99.2844 552.073 99.3886 Q551.61 99.4927 551.124 99.7126 L551.124 95.3724 Z" fill="#000000" fill-rule="evenodd" fill-opacity="1" /></svg>
