<?xml version="1.0" encoding="utf-8"?>
<svg xmlns="http://www.w3.org/2000/svg" xmlns:xlink="http://www.w3.org/1999/xlink" width="150" height="100" viewBox="0 0 600 400">
<defs>
  <clipPath id="clip190">
    <rect x="0" y="0" width="600" height="400"/>
  </clipPath>
</defs>
<path clip-path="url(#clip190)" d="
M0 400 L600 400 L600 0 L0 0  Z
  " fill="#ffffff" fill-rule="evenodd" fill-opacity="1"/>
<defs>
  <clipPath id="clip191">
    <rect x="120" y="0" width="421" height="400"/>
  </clipPath>
</defs>
<path clip-path="url(#clip190)" d="
M11.811 388.189 L588.189 388.189 L588.189 11.811 L11.811 11.811  Z
  " fill="#ffffff" fill-rule="evenodd" fill-opacity="1"/>
<defs>
  <clipPath id="clip192">
    <rect x="11" y="11" width="577" height="377"/>
  </clipPath>
</defs>
<polyline clip-path="url(#clip192)" style="stroke:#000000; stroke-width:1; stroke-opacity:1; fill:none" points="
  404.568,36.1199 471.92,337.536 343.87,24.7897 153.244,349.451 145.622,53.8605 326.093,376.718 469.122,60.9935 417.425,360.124 209.575,32.5705 126.443,336.657 
  239.01,26.988 437.792,353.047 460.692,56.7926 292.084,377.462 134.867,58.9631 171.063,356.302 375.096,29.37 474.048,336.389 377.23,29.7767 172.537,356.817 
  134.257,59.2682 289.616,377.408 459.915,56.4219 439.081,352.548 241.274,26.6543 126.597,336.74 207.594,33.0324 415.767,360.638 469.569,61.2256 328.522,376.558 
  146.574,53.4337 152.137,348.985 341.503,24.544 471.611,337.7 406.38,36.6181 197.268,364.375 127.791,62.6187 253.775,374.952 445.625,50.0784 455.305,345.72 
  276.343,23.1365 131.346,339.249 180.941,40.3914 388.422,367.886 473.689,63.4159 363.238,372.668 163.522,46.4524 138.553,342.845 305.446,22.4988 464.501,341.352 
  430.386,44.2118 227.057,371.028 125.972,63.5998 220.655,369.809 425.963,42.6675 466.329,340.437 312.848,22.6615 140.886,343.957 159.654,47.9468 356.446,373.669 
  473.228,63.1663 394.365,366.5 185.916,38.8497 130.006,338.553 269.056,23.6168 452.45,347 448.945,51.4758 260.875,375.689 128.719,62.1248 191.831,362.881 
  400.872,35.1352 472.475,337.239 348.567,25.3189 155.531,350.398 143.79,54.693 321.213,376.996 468.164,60.4986 
  "/>
<polyline clip-path="url(#clip192)" style="stroke:#000000; stroke-width:1; stroke-opacity:1; fill:none" points="
  571.876,200 571.863,198.225 571.822,196.45 571.754,194.675 571.659,192.901 571.537,191.127 571.387,189.354 571.211,187.583 571.007,185.812 570.776,184.043 
  570.518,182.276 570.233,180.511 569.921,178.747 569.582,176.985 569.216,175.226 568.824,173.469 568.404,171.715 567.957,169.964 567.484,168.216 566.984,166.471 
  566.457,164.729 565.904,162.991 565.323,161.256 564.717,159.526 564.084,157.799 563.424,156.077 562.739,154.359 562.027,152.646 561.288,150.937 560.524,149.233 
  559.733,147.534 558.917,145.841 558.075,144.153 557.207,142.471 556.313,140.794 555.393,139.123 554.448,137.458 553.478,135.8 552.482,134.148 551.461,132.503 
  550.415,130.864 549.343,129.232 548.247,127.608 547.126,125.99 545.981,124.38 544.81,122.778 543.616,121.183 542.396,119.596 541.153,118.017 539.885,116.447 
  538.594,114.884 537.279,113.331 535.94,111.786 534.577,110.249 533.191,108.722 531.781,107.204 530.349,105.695 528.893,104.196 527.414,102.706 525.913,101.226 
  524.389,99.7553 522.843,98.295 521.274,96.845 519.684,95.4052 518.071,93.9759 516.436,92.5572 514.78,91.1493 513.103,89.7522 511.404,88.3662 509.684,86.9913 
  507.942,85.6277 506.181,84.2756 504.398,82.935 502.595,81.6062 500.772,80.2891 498.929,78.9841 497.066,77.6911 495.183,76.4104 493.281,75.1421 491.359,73.8862 
  489.418,72.6429 487.458,71.4124 485.48,70.1948 483.483,68.9901 481.467,67.7985 479.434,66.6201 477.382,65.4551 475.313,64.3035 473.226,63.1655 471.122,62.0412 
  469.001,60.9307 466.863,59.8341 464.708,58.7515 462.537,57.683 460.349,56.6287 458.146,55.5888 455.926,54.5634 453.692,53.5524 451.441,52.5562 449.176,51.5746 
  446.895,50.6079 444.6,49.6562 442.291,48.7195 439.967,47.7979 437.629,46.8915 435.278,46.0005 432.913,45.1248 430.534,44.2646 428.143,43.42 425.739,42.5911 
  423.322,41.7779 420.893,40.9805 418.452,40.199 415.999,39.4336 413.534,38.6841 411.058,37.9508 408.571,37.2337 406.073,36.5329 403.564,35.8484 401.045,35.1803 
  398.516,34.5288 395.978,33.8937 393.429,33.2753 390.871,32.6735 388.304,32.0885 385.729,31.5203 383.144,30.9689 380.552,30.4344 377.951,29.9169 375.342,29.4164 
  372.726,28.9329 370.103,28.4666 367.473,28.0174 364.836,27.5854 362.192,27.1706 359.543,26.7732 356.887,26.393 354.226,26.0302 351.559,25.6848 348.887,25.3569 
  346.21,25.0464 343.528,24.7534 340.843,24.4779 338.153,24.22 335.459,23.9796 332.762,23.7569 330.061,23.5518 327.358,23.3643 324.651,23.1945 321.943,23.0423 
  319.232,22.9079 316.519,22.7912 313.804,22.6922 311.088,22.6109 308.371,22.5474 305.653,22.5016 302.935,22.4735 300.216,22.4632 297.498,22.4707 294.779,22.4959 
  292.061,22.5389 289.344,22.5996 286.628,22.678 283.913,22.7742 281.2,22.8881 278.489,23.0197 275.78,23.1691 273.073,23.3361 270.369,23.5207 267.668,23.723 
  264.97,23.943 262.276,24.1805 259.585,24.4357 256.899,24.7083 254.217,24.9985 251.539,25.3063 248.866,25.6314 246.198,25.9741 243.536,26.3341 240.88,26.7115 
  238.229,27.1062 235.584,27.5182 232.946,27.9474 230.315,28.3939 227.69,28.8575 225.073,29.3383 222.464,29.8361 219.862,30.3509 217.268,30.8827 214.682,31.4313 
  212.105,31.9969 209.537,32.5792 206.977,33.1783 204.427,33.7941 201.887,34.4265 199.356,35.0755 196.836,35.7409 194.326,36.4228 191.826,37.121 189.337,37.8355 
  186.859,38.5662 184.393,39.3131 181.938,40.0761 179.495,40.855 177.064,41.6498 174.645,42.4605 172.239,43.287 169.845,44.1291 167.465,44.9868 165.098,45.86 
  162.744,46.7486 160.404,47.6525 158.078,48.5717 155.766,49.506 153.469,50.4554 151.186,51.4197 148.918,52.3989 146.666,53.3928 144.428,54.4014 142.206,55.4245 
  140,56.4622 137.81,57.5141 135.636,58.5803 133.479,59.6607 131.338,60.7551 129.214,61.8634 127.107,62.9855 125.018,64.1214 122.946,65.2708 120.891,66.4337 
  118.855,67.6099 116.837,68.7994 114.837,70.002 112.855,71.2176 110.892,72.4461 108.949,73.6873 107.024,74.9412 105.118,76.2076 103.232,77.4863 101.366,78.7774 
  99.5198,80.0805 97.6934,81.3956 95.8872,82.7226 94.1015,84.0613 92.3364,85.4116 90.592,86.7734 88.8686,88.1464 87.1662,89.5307 85.4852,90.926 83.8256,92.3323 
  82.1877,93.7492 80.5715,95.1769 78.9772,96.615 77.4051,98.0634 75.8552,99.522 74.3277,100.991 72.8228,102.469 71.3406,103.958 69.8813,105.456 68.445,106.963 
  67.0319,108.48 65.642,110.005 64.2756,111.54 62.9327,113.084 61.6136,114.636 60.3183,116.197 59.047,117.767 57.7997,119.344 56.5767,120.93 55.378,122.523 
  54.2038,124.124 53.0542,125.733 51.9292,127.35 50.8291,128.973 49.7539,130.604 48.7037,132.241 47.6786,133.886 46.6788,135.537 45.7043,137.194 44.7552,138.858 
  43.8317,140.527 42.9337,142.203 42.0615,143.885 41.2151,145.572 40.3945,147.264 39.5999,148.962 38.8314,150.665 38.0889,152.373 37.3727,154.086 36.6827,155.803 
  36.0191,157.525 35.3818,159.251 34.771,160.98 34.1867,162.714 33.6291,164.452 33.098,166.193 32.5936,167.938 32.116,169.685 31.6652,171.436 31.2412,173.19 
  30.8441,174.946 30.4739,176.705 30.1306,178.466 29.8143,180.229 29.5251,181.995 29.2629,183.762 29.0278,185.531 28.8197,187.301 28.6388,189.072 28.485,190.845 
  28.3584,192.618 28.2589,194.392 28.1866,196.167 28.1415,197.942 28.1236,199.717 28.1329,201.493 28.1693,203.268 28.233,205.043 28.3238,206.817 28.4417,208.591 
  28.5869,210.364 28.7591,212.136 28.9585,213.906 29.185,215.675 29.4386,217.443 29.7193,219.209 30.0269,220.973 30.3616,222.735 30.7232,224.494 31.1118,226.251 
  31.5272,228.006 31.9695,229.758 32.4386,231.506 32.9345,233.252 33.457,234.994 34.0062,236.733 34.582,238.468 35.1844,240.199 35.8132,241.927 36.4685,243.65 
  37.1501,245.368 37.8579,247.082 38.592,248.792 39.3523,250.496 40.1386,252.196 40.9509,253.89 41.7891,255.579 42.6531,257.262 43.5429,258.94 44.4582,260.612 
  45.3992,262.277 46.3656,263.937 47.3574,265.59 48.3744,267.236 49.4166,268.876 50.4839,270.509 51.5761,272.135 52.6931,273.753 53.8349,275.364 55.0013,276.968 
  56.1922,278.564 57.4075,280.152 58.647,281.732 59.9107,283.304 61.1984,284.868 62.51,286.423 63.8453,287.969 65.2042,289.507 66.5866,291.036 67.9924,292.555 
  69.4213,294.066 70.8733,295.567 72.3482,297.058 73.8459,298.54 75.3662,300.012 76.909,301.474 78.474,302.925 80.0613,304.367 81.6705,305.798 83.3015,307.218 
  84.9542,308.628 86.6285,310.026 88.324,311.414 90.0408,312.791 91.7785,314.156 93.537,315.51 95.3162,316.853 97.1159,318.183 98.9358,319.502 100.776,320.809 
  102.636,322.104 104.516,323.387 106.415,324.657 108.333,325.915 110.271,327.16 112.228,328.393 114.204,329.613 116.198,330.819 118.21,332.013 120.241,333.194 
  122.289,334.361 124.356,335.514 126.44,336.655 128.541,337.781 130.66,338.894 132.795,339.993 134.947,341.078 137.116,342.148 139.301,343.205 141.502,344.247 
  143.719,345.275 145.951,346.288 148.199,347.287 150.462,348.27 152.74,349.24 155.033,350.194 157.34,351.133 159.662,352.057 161.997,352.966 164.346,353.859 
  166.709,354.737 169.086,355.6 171.475,356.447 173.877,357.278 176.292,358.094 178.719,358.894 181.158,359.678 183.61,360.446 186.072,361.198 188.547,361.934 
  191.032,362.654 193.528,363.357 196.035,364.044 198.552,364.715 201.08,365.369 203.617,366.007 206.164,366.628 208.72,367.232 211.286,367.82 213.86,368.391 
  216.443,368.945 219.035,369.482 221.634,370.002 224.241,370.505 226.856,370.992 229.478,371.461 232.107,371.913 234.743,372.347 237.386,372.765 240.035,373.165 
  242.689,373.548 245.35,373.914 248.016,374.262 250.687,374.593 253.363,374.906 256.044,375.202 258.729,375.48 261.418,375.741 264.111,375.984 266.808,376.209 
  269.508,376.417 272.211,376.607 274.917,376.78 277.626,376.935 280.336,377.072 283.049,377.192 285.763,377.294 288.479,377.378 291.196,377.444 293.913,377.493 
  296.632,377.524 299.35,377.537 302.069,377.532 304.788,377.51 307.506,377.47 310.223,377.412 312.939,377.336 315.654,377.243 318.368,377.132 321.079,377.003 
  323.789,376.856 326.496,376.692 329.2,376.51 331.902,376.311 334.6,376.094 337.295,375.859 339.986,375.607 342.673,375.337 345.356,375.049 348.035,374.744 
  350.708,374.422 353.377,374.082 356.04,373.725 358.697,373.35 361.349,372.958 363.995,372.549 366.634,372.123 369.266,371.679 371.892,371.218 374.51,370.74 
  377.121,370.245 379.724,369.733 382.319,369.204 384.906,368.658 387.485,368.095 390.055,367.515 392.615,366.919 395.167,366.306 397.709,365.676 400.241,365.029 
  402.763,364.367 405.275,363.687 407.776,362.992 410.267,362.28 412.747,361.552 415.215,360.807 417.672,360.047 420.117,359.271 422.55,358.478 424.97,357.67 
  427.379,356.846 429.774,356.007 432.157,355.151 434.526,354.281 436.882,353.394 439.224,352.493 441.552,351.576 443.866,350.644 446.166,349.697 448.451,348.735 
  450.721,347.759 452.976,346.767 455.216,345.761 457.441,344.74 459.649,343.705 461.842,342.655 464.018,341.591 466.178,340.513 468.322,339.421 470.448,338.314 
  472.558,337.195 474.65,336.061 476.725,334.914 478.782,333.753 480.822,332.579 482.843,331.391 484.846,330.191 486.83,328.977 488.796,327.751 490.743,326.512 
  492.671,325.26 494.579,323.995 496.468,322.719 498.338,321.43 500.187,320.128 502.017,318.815 503.826,317.49 505.615,316.153 507.384,314.805 509.131,313.445 
  510.858,312.073 512.564,310.691 514.248,309.297 515.911,307.893 517.553,306.478 519.172,305.052 520.77,303.615 522.346,302.168 523.899,300.711 525.43,299.244 
  526.939,297.767 528.424,296.281 529.887,294.784 531.327,293.278 532.744,291.763 534.138,290.239 535.508,288.705 536.855,287.163 538.178,285.612 539.477,284.052 
  540.752,282.484 542.003,280.908 543.23,279.324 544.432,277.732 545.61,276.132 546.764,274.524 547.893,272.909 548.997,271.286 550.076,269.657 551.13,268.02 
  552.159,266.377 553.163,264.727 554.142,263.071 555.095,261.408 556.023,259.739 556.925,258.065 557.801,256.384 558.652,254.698 559.476,253.006 560.275,251.309 
  561.048,249.607 561.794,247.9 562.515,246.188 563.209,244.471 563.877,242.75 564.518,241.025 565.133,239.296 565.722,237.562 566.284,235.825 566.819,234.085 
  567.327,232.341 567.809,230.594 568.264,228.843 568.693,227.09 569.094,225.334 569.469,223.576 569.816,221.815 570.137,220.052 570.43,218.287 570.697,216.52 
  570.936,214.752 571.149,212.982 571.334,211.21 571.492,209.438 571.623,207.665 571.727,205.891 571.803,204.116 571.853,202.341 571.875,200.566 
  "/>
</svg>
